<?xml version="1.0" standalone="no"?><!DOCTYPE svg PUBLIC "-//W3C//DTD SVG 1.1//EN" "http://www.w3.org/Graphics/SVG/1.1/DTD/svg11.dtd"><svg t="1691825511786" class="icon" viewBox="0 0 1024 1024" version="1.1" xmlns="http://www.w3.org/2000/svg" p-id="934" xmlns:xlink="http://www.w3.org/1999/xlink" width="200" height="200"><path d="M903.517 979.558H122.938c-42.743 0-77.516-34.773-77.516-77.516v-780.58c0-42.743 34.773-77.516 77.516-77.516h780.579c42.743 0 77.517 34.773 77.517 77.516v613.263h-40V121.462c0-20.687-16.83-37.516-37.517-37.516H122.938c-20.687 0-37.516 16.83-37.516 37.516v780.58c0 20.687 16.83 37.516 37.516 37.516h780.579c20.687 0 37.517-16.829 37.517-37.516V720.921h40v181.121c-0.001 42.742-34.774 77.516-77.517 77.516z" fill="#2c2c2c" p-id="935"></path><path d="M778.798 372.854H247.656V43.946h531.142v328.908z m-491.142-40h451.142V83.946H287.656v248.908z" fill="#2c2c2c" p-id="936"></path><path d="M623.235 150.619h40v115.563h-40z" fill="#2c2c2c" p-id="937"></path></svg>