<?xml version="1.0" standalone="no"?><!DOCTYPE svg PUBLIC "-//W3C//DTD SVG 1.1//EN" "http://www.w3.org/Graphics/SVG/1.1/DTD/svg11.dtd"><svg t="1691825175553" class="icon" viewBox="0 0 1024 1024" version="1.1" xmlns="http://www.w3.org/2000/svg" p-id="11529" xmlns:xlink="http://www.w3.org/1999/xlink" width="200" height="200"><path d="M833.008 902.68h-716.44c-39.231 0-71.147-31.916-71.147-71.146V115.093c0-39.231 31.916-71.147 71.147-71.147h716.44c39.231 0 71.147 31.916 71.147 71.147v562.872h-36.713V115.093c0-18.987-15.447-34.433-34.434-34.433h-716.44c-18.987 0-34.433 15.447-34.433 34.433v716.441c0 18.987 15.447 34.433 34.433 34.433h716.44c18.987 0 34.434-15.446 34.434-34.433V665.295h36.713v166.239c0.001 39.23-31.916 71.146-71.147 71.146z" fill="#2c2c2c" p-id="11530"></path><path d="M778.798 372.854H247.656V43.946h531.142v328.908z m-491.142-40h451.142V83.946H287.656v248.908z" fill="#2c2c2c" p-id="11531"></path><path d="M623.235 150.619h40v115.563h-40z" fill="#2c2c2c" p-id="11532"></path><path d="M897.215 150.619c37.554 0 68.105 30.551 68.105 68.104v538.804h-35.143V218.723c0-18.175-14.787-32.961-32.962-32.961" fill="#2c2c2c" p-id="11533"></path><path d="M178.449 904.528c0 18.175 14.786 32.961 32.961 32.961h685.805c18.175 0 32.962-14.786 32.962-32.961v-159.13h35.143v159.13c0 37.553-30.551 68.104-68.105 68.104H211.41c-37.553 0-68.104-30.551-68.104-68.104" fill="#2c2c2c" p-id="11534"></path></svg>